<?xml version="1.0"?><svg version="1.2" baseProfile="tiny-ps" viewBox="0 0 300 300" xmlns="http://www.w3.org/2000/svg" xmlns:xlink="http://www.w3.org/1999/xlink"><title>Blue Mermaid Events</title><g><g fill="#fefdfe" transform="matrix(.1 0 0 -.1 0 300)"><path d="M0 1500V0h3000v3000H0V1500z"/></g><g fill="#c3bedc" transform="matrix(.1 0 0 -.1 0 300)"><path d="M0 1500V0h3000v3000H0V1500zm1381 383c0-32 0-86-1-120l-1-63h60l11 19c5 11 10 30 10 42v22l-17 19c-9 10-23 18-32 18h-16l25 13 25 12 3 33 3 33-12 15-11 14h50l22-18 23-19-7-27-7-27-24-11-25-11 30-19c36-21 44-39 36-72l-6-24-31-11-32-11h-159l8 18c5 9 10 56 12 104l3 87-11 20-11 21h81l1-57zm249-56v-113l12-12 12-12h-89v235l15 7c8 4 23 7 33 7l17 1v-113zm137-111 16-6 14 12 14 11-2 66-2 65 31 7 32 6v-156l12-8 13-7-35-7-35-8-8 15-8 14-22-15-21-15h-54l-10 13-10 12-3 75-4 75 30 5 30 5 3-76 3-77 16-6zm287 143 26-20v-39h-110v-18c0-10 7-28 16-40l15-22h37l37-1-25-14-25-14-33-1h-33l-24 25-25 24v77l16 22c18 25 47 40 80 41l21 1 27-21zm580-245c20-19 20-19 0-38l-15-16-20 10c-22 12-25 30-7 48 16 16 23 15 42-4zm248-114 3-130-13-5c-8-3-22-5-32-5h-18l-5 13-4 12-14-12-13-13h-63l-15 18c-8 9-18 29-22 44l-6 28 14 34 14 34 20 11c12 6 37 11 58 11h37l-7 39-6 40 27 4c16 2 31 5 35 6l7 1 3-130zm-1467 30 39-79 8 5c11 7-19-67-32-80l-9-9-41 89c-23 49-44 91-48 94s-13 17-19 33l-13 27h76l39-80zm195 71c0-6-4-13-10-16l-10-6v-180l10-20 11-19h-102l11 20 11 20-3 83-3 82-27-50c-38-70-35-49 4 30l32 65h76v-9zm102-73c-7-7-12-22-12-35v-23h13c6 0 18 4 26 9l14 9-5 26-5 26h13c19 0 54-40 54-62v-18h-110v-18c0-10 6-27 14-37l14-19 38 1 39 1-20-14-19-14h-80l-23 22-23 21v88l25 24 24 25h35l-12-12zm198-4v-15l22 15c12 9 28 16 35 16h13v-63l-20 18-19 17-16-6-17-6 4-70 3-70h-70l2 82 2 83 23 6c36 11 38 10 38-7zm209 7 33 11 24-11 24-11v-64c0-35 3-71 6-80l6-16h-77l3 75 4 75-16 6-16 6-16-13-16-13 4-68 4-68h-71l2 82 1 83 29 5 28 6 6-8 5-8 33 11zm181-1 15-9 5-81 5-80h-72l5 55c2 30 1 66-2 81l-7 26-22-5-22-6 19 14c23 17 54 19 76 5zm208-2 12-12v-122l11-11 11-11-32-7-32-7-8 13-8 13-16-13-15-12-33 3-33 3-3 22-3 21 21 20c12 11 35 22 51 26l30 6-3 27-3 28-34 3-35 4 15 9c8 5 32 9 55 9h40l12-12zm144-78 3-90h-89l12 12 12 12v112l-12 12-11 11 14 5c13 4 44 12 61 15 4 0 8-40 10-89zm-1318-75 5-15h-38l5 15c4 8 10 15 14 15s10-7 14-15zm642 473c-9-36-8-38 25-38h31l-6 16c-3 9-6 22-6 30v14h-38l-6-22zm784-337c-5-11-10-37-10-58v-39l14-20 15-19 18 11 18 11 3 43c2 24 1 54-3 67l-5 23h-39l-11-19zm-330-76-12-14 4-18 3-18h30l3 33 3 32h-9c-5 0-15-7-22-15z"/></g><g fill="#f19122" transform="matrix(.1 0 0 -.1 0 300)"><path d="M0 1500V0h3000v3000H0V1500zm1477 439c32-12 43-26 43-56v-22l-24-18-24-19 29-17 29-16v-70l-22-15-22-16h-200l12 12 12 12v197l-10 20-11 19h160l28-11zm165-127 3-122h-99l12 12 12 12v192l-11 11-12 12 29 6c16 4 34 8 39 10 20 5 24-13 27-133zm110-9 3-78h50l3 53 3 54-12 14-11 14 13 4c8 2 26 7 42 10l27 6v-149l10-6c20-12 9-24-26-31l-36-7-8 13-7 12-21-11c-11-6-32-11-46-11h-26l-14 23-15 22-2 65-3 64 25 7c13 4 29 7 36 8l12 1 3-77zm293 71c8-4 23-20 31-36l15-29-6-9-6-10h-107l5-19c3-11 13-27 24-37l18-17 33 7 33 6-24-20-23-20h-79l-24 25-25 24v43l1 43 12 16c26 34 80 49 122 33zm599-266 11-18-17-16-16-16-21 7-21 6v23c0 12 3 26 7 30 12 12 45 2 57-16zm236-96v-118l11-11 11-11-18-5c-11-3-29-8-41-12l-23-6v29l-31-15-32-16-26 9-26 9-13 25-13 25 5 39 5 39 25 25 25 25 36 1 37 1-5 37-5 37 22 4c11 2 29 5 39 6l17 1v-118zm-1463 23c19-41 37-75 40-75 2 0 20 34 38 75l34 75h76l-3-109-4-109 11-21 12-21h-122l11 19 10 20-1 78v78l-45-87c-24-49-46-88-49-88s-25 39-49 88l-45 87v-78l-1-78 10-20 11-19h-62l12 21 11 21-4 109-3 109h76l36-75zm374-11c9-8 19-26 22-40l4-24h-117v-13c0-7 7-23 16-36l17-23 39 5 40 5-18-19-17-19-31-5-31-6-27 10-27 10-16 32-17 31 6 33 6 32 23 20c12 11 29 23 37 26 22 9 71-1 91-19zm702 17 25-10 6-28c3-15 6-53 8-83l3-54-32-7-32-6-4 10-3 10-36-13-37-14-15 13-16 13v48l33 20c17 11 40 20 50 20h17v19c0 10-7 24-15 31l-15 12-33-6-32-6 20 14c35 24 73 30 108 17zm-583-18v-16l18 16 19 17h45l-6-16c-3-9-6-23-6-32v-16l-12 12c-7 7-22 12-35 12h-23v-111l10-20 11-19h-96v179l25 4c14 2 31 5 38 6l12 1v-17zm180 7v-11l19 11c26 13 64 13 78-1l11-11 20 11c11 6 34 11 49 11h29l12-12 12-12v-127l10-20 11-19h-96l4 81 3 81-23-4-23-3 3-60c1-33 4-68 7-77l5-18h-102l11 20 11 21-3 57-3 57-24 3-23 4 3-81 4-81h-96l12 21 11 22-4 68-4 68 21 4c11 2 28 5 38 6l17 1v-10zm560-66v-75l10-20 11-19h-96v179l20 4c11 2 28 5 38 6l17 1v-76zm-1263 469c-4-3-7-28-7-55v-48h49l11 19c5 11 10 29 10 40 0 34-43 64-63 44zm-7-179v-55l27 3 27 3 15 27 15 26-12 26-12 26h-60v-56zm605 102c-3-9-7-23-10-31l-4-15h50l-3 27-3 26-12 5-13 4-5-16zm774-353-11-28 5-39 5-39 13-8c7-4 18-5 26-2l14 5-3 67-3 66-17 3-18 3-11-28zm-1048 18c-6-11-11-24-11-30v-11h50v19c0 10-6 24-14 30l-15 12-10-20zm727-82-18-10v-39h40v30c0 17-1 30-2 30-2 0-11-5-20-11z"/></g><g fill="#847ab4" transform="matrix(.1 0 0 -.1 0 300)"><path d="M0 1500V0h3000v3000H0V1500zm1477 439c32-12 43-26 43-56v-22l-24-18-24-19 29-17 29-16v-70l-22-15-22-16h-200l12 12 12 12v197l-10 20-11 19h160l28-11zm165-127 3-122h-99l12 12 12 12v192l-11 11-12 12 29 6c16 4 34 8 39 10 20 5 24-13 27-133zm-1282 93 54-35h68l58 35 58 35h48l49-1 55-34 54-35h68l58 35 58 35h52v-118l-29-7c-16-3-51-20-77-38l-49-31h-90l-50 31c-27 17-64 34-81 38l-31 6-31-25-30-26-6-34-7-35 7-25 6-25 26-10 27-9-31-1c-38-1-57-16-82-65l-19-39-36 56c-20 30-45 61-57 67l-21 11-41-3-41-3-11-17-11-18 11-17 10-17 38-10 38-11 29-69c16-38 27-71 25-73-2-3-34 12-69 31l-65 37-7-11-7-12 8-8c18-17 146-80 164-80 10 0 52 18 94 40l75 40h50l76-40c42-22 84-40 95-40 10 0 52 18 94 40 41 22 82 40 91 40h15v-130h-20c-12 0-55-18-96-40l-76-40-26 7c-15 3-51 21-82 40l-55 33h-76l-75-40-76-40-26 7c-15 3-48 19-73 35-46 28-79 36-79 19 0-4 28-26 63-47l62-39h45l45 1 60 37 60 37h60l60-37 60-38h90l60 38c33 20 68 37 78 37h17v-130h-15c-8 0-48-18-90-40s-85-40-95-40-53 18-95 40l-76 40h-48l-76-40c-42-22-85-40-95-40s-53 18-95 40l-76 40h-27c-15-1-38-7-52-15s-31-14-37-15h-13v765l28 17 27 17h100l55-34zm1392-102 3-78h50l3 53 3 54-12 14-11 14 13 4c8 2 26 7 42 10l27 6v-149l10-6c20-12 9-24-26-31l-36-7-8 13-7 12-21-11c-11-6-32-11-46-11h-26l-14 23-15 22-2 65-3 64 25 7c13 4 29 7 36 8l12 1 3-77zm293 71c8-4 23-20 31-36l15-29-6-9-6-10h-107l5-19c3-11 13-27 24-37l18-17 33 7 33 6-24-20-23-20h-79l-24 25-25 24v43l1 43 12 16c26 34 80 49 122 33zM741 1744l59-37 47 5 48 5 51 31 51 32h44l-3-62-3-62-30-6c-16-4-53-21-81-38l-51-32h-68l-33 20c-38 23-52 25-52 7v-13l39-22 39-22h88l48 30c27 17 61 34 77 37l29 6v-133h-43l-63-35-62-35h-64l-62 35-63 35h-76l-64-36-63-35-9 5c-5 3-21 36-36 73-32 80-47 100-86 108-16 4-29 11-29 16v9h60l16-17c9-10 34-46 55-80 21-35 42-63 47-63s22 28 38 63l29 62 38 3 38 3 11 24 11 24-13 16-14 16-18-4-18-5v35c0 19 5 43 10 54l11 19h61l59-36zm1903-136 11-18-17-16-16-16-21 7-21 6v23c0 12 3 26 7 30 12 12 45 2 57-16zm236-96v-118l11-11 11-11-18-5c-11-3-29-8-41-12l-23-6v29l-31-15-32-16-26 9-26 9-13 25-13 25 5 39 5 39 25 25 25 25 36 1 37 1-5 37-5 37 22 4c11 2 29 5 39 6l17 1v-118zm-1463 23c19-41 37-75 40-75 2 0 20 34 38 75l34 75h76l-3-109-4-109 11-21 12-21h-122l11 19 10 20-1 78v78l-45-87c-24-49-46-88-49-88s-25 39-49 88l-45 87v-78l-1-78 10-20 11-19h-62l12 21 11 21-4 109-3 109h76l36-75zm374-11c9-8 19-26 22-40l4-24h-117v-13c0-7 7-23 16-36l17-23 39 5 40 5-18-19-17-19-31-5-31-6-27 10-27 10-16 32-17 31 6 33 6 32 23 20c12 11 29 23 37 26 22 9 71-1 91-19zm702 17 25-10 6-28c3-15 6-53 8-83l3-54-32-7-32-6-4 10-3 10-36-13-37-14-15 13-16 13v48l33 20c17 11 40 20 50 20h17v19c0 10-7 24-15 31l-15 12-33-6-32-6 20 14c35 24 73 30 108 17zm-583-18v-16l18 16 19 17h45l-6-16c-3-9-6-23-6-32v-16l-12 12c-7 7-22 12-35 12h-23v-111l10-20 11-19h-96v179l25 4c14 2 31 5 38 6l12 1v-17zm180 7v-11l19 11c26 13 64 13 78-1l11-11 20 11c11 6 34 11 49 11h29l12-12 12-12v-127l10-20 11-19h-96l4 81 3 81-23-4-23-3 3-60c1-33 4-68 7-77l5-18h-102l11 20 11 21-3 57-3 57-24 3-23 4 3-81 4-81h-96l12 21 11 22-4 68-4 68 21 4c11 2 28 5 38 6l17 1v-10zm560-66v-75l10-20 11-19h-96v179l20 4c11 2 28 5 38 6l17 1v-76zm-1220-206-1-23-10 18-10 17h-59v-82l25 4 25 5v-24l-25 5-25 4v-82h66l12 12 12 12v-34h-135v190h125v-22zm114 11-7-11 18-59 18-58 10 6 9 6-7-24c-8-26-22-45-28-38-2 2-20 46-39 97l-36 92h69l-7-11zm95-6c-7-10-14-19-15-21-1-1-4 6-7 18l-5 20h40l-13-17zm181-5-1-23-10 18-10 17h-59v-82l25 4 25 5v-24l-25 5-25 4v-82h66l12 12 12 12v-34h-135v190h125v-22zm137-44 48-66 3 23c2 12 2 42 0 65l-3 44h27l-6-16c-3-9-6-49-6-90v-74h-9c-6 0-31 28-57 63-26 34-51 67-56 72l-10 10 4-78 3-77h-20v190h33l49-66zm263 49v-17l-12 12c-7 7-21 12-31 12h-19l4-90 3-90h-56l11 19 10 20v132l-15 5-15 6-15-12-15-12v32h150v-17zm128 11 22-6v-31l-18 16c-22 20-46 22-60 4l-11-13 7-10c4-6 26-23 50-38l42-26v-50l-25-16-25-16-35 6-35 7v28l28-16 29-16 16 6 17 6v40l-45 27-45 26v59l23 9c27 11 36 11 65 4zm-739-83c-6-18-13-30-15-28s1 18 7 36 13 30 15 28-1-18-7-36zm-222 742c-4-3-7-28-7-55v-48h49l11 19c5 11 10 29 10 40 0 34-43 64-63 44zm-7-179v-55l27 3 27 3 15 27 15 26-12 26-12 26h-60v-56zm-1053 36-5-20h-45l17-19c10-10 16-25 14-33-3-15 6-20 27-12l15 6 15-12 15-12v45l17 19 16 18h-42l-11 20c-6 11-15 20-19 20-5 0-11-9-14-20zm1658 66c-3-9-7-23-10-31l-4-15h50l-3 27-3 26-12 5-13 4-5-16zm774-353-11-28 5-39 5-39 13-8c7-4 18-5 26-2l14 5-3 67-3 66-17 3-18 3-11-28zm-1048 18c-6-11-11-24-11-30v-11h50v19c0 10-6 24-14 30l-15 12-10-20zm727-82-18-10v-39h40v30c0 17-1 30-2 30-2 0-11-5-20-11z"/></g><g fill="#a56958" transform="matrix(.1 0 0 -.1 0 300)"><path d="M0 1500V0h3000v3000H0V1500zm1506 428 17-16v-56l-21-16-20-17 19-12c11-6 25-23 31-36l11-24-16-25-17-25-37-10-38-11h-147l8 18 9 17v200l-9 18-9 19 101-4 101-3 17-17zm134-90c0-62 3-123 6-135l6-23h-97l2 127 2 128 23 7c13 3 31 6 41 7l17 1v-112zm-1280 67 54-35h68l58 35 58 35h48l49-1 55-34 54-35h68l58 35 58 35h52v-118l-29-7c-16-3-51-20-77-38l-49-31h-90l-50 31c-27 17-64 34-81 38l-31 6-31-25-30-26-6-34-7-35 7-25 6-25 26-10 27-9-31-1c-38-1-57-16-82-65l-19-39-36 56c-20 30-45 61-57 67l-21 11-41-3-41-3-11-17-11-18 11-17 10-17 38-10 38-11 29-69c16-38 27-71 25-73-2-3-34 12-69 31l-65 37-7-11-7-12 8-8c18-17 146-80 164-80 10 0 52 18 94 40l75 40h50l76-40c42-22 84-40 95-40 10 0 52 18 94 40 41 22 82 40 91 40h15v-130h-20c-12 0-55-18-96-40l-76-40-26 7c-15 3-51 21-82 40l-55 33h-76l-75-40-76-40-26 7c-15 3-48 19-73 35-46 28-79 36-79 19 0-4 28-26 63-47l62-39h45l45 1 60 37 60 37h60l60-37 60-38h90l60 38c33 20 68 37 78 37h17v-130h-15c-8 0-48-18-90-40s-85-40-95-40-53 18-95 40l-76 40h-48l-76-40c-42-22-85-40-95-40s-53 18-95 40l-76 40h-27c-15-1-38-7-52-15s-31-14-37-15h-13v765l28 17 27 17h100l55-34zm1400-106v-80l18 3 17 3v144l29 5c16 3 35 6 42 6h14v-156l11-11 10-10-41-11-41-10-6 14-5 14-30-16-30-16-24 6-23 6-10 18c-5 9-10 49-13 89l-4 72 21 4c11 2 30 5 43 6l22 1v-81zm305 56 25-24v-41h-110v-13c0-7 6-21 13-31l14-19 36 5c20 2 37 1 37-2 0-13-36-39-63-45l-27-7-31 12-30 13-14 28c-19 36-19 63 0 99 19 37 41 49 88 50h38l24-25zM741 1744l59-37 47 5 48 5 51 31 51 32h44l-3-62-3-62-30-6c-16-4-53-21-81-38l-51-32h-68l-33 20c-38 23-52 25-52 7v-13l39-22 39-22h88l48 30c27 17 61 34 77 37l29 6v-133h-43l-63-35-62-35h-64l-62 35-63 35h-76l-64-36-63-35-9 5c-5 3-21 36-36 73-32 80-47 100-86 108-16 4-29 11-29 16v9h60l16-17c9-10 34-46 55-80 21-35 42-63 47-63s22 28 38 63l29 62 38 3 38 3 11 24 11 24-13 16-14 16-18-4-18-5v35c0 19 5 43 10 54l11 19h61l59-36zm1904-149v-30h-58l-10 17-11 16 14 17 13 16 26-3 26-3v-30zm237-82c2-65 7-125 11-134l8-16-38-6-37-6-7 10-6 11-21-11c-11-6-32-11-46-11h-25l-20 26-21 27v33c0 18 4 44 10 58l9 25 30 16c17 8 42 15 57 15h27l-6 34-6 35 17 4c9 3 27 5 39 6l22 1 3-117zm-1464 26 37-81 40 81 39 81h88l-8-17c-5-10-10-62-12-117l-3-99 10-10c6-6 11-15 11-19v-8h-120v9c0 6 5 13 10 16l10 6-1 77v77l-42-82-41-83h-22l-42 83-42 82 3-75c2-41 7-83 11-92l8-18h-64l8 18 9 17v200l-9 18-8 17h93l37-81zm373-18c16-16 29-37 29-45v-16h-119l10-30 11-29 20-6c10-4 30-4 43-1l24 6-5-14c-7-18-49-36-85-36h-31l-29 29-29 29v31c0 16 4 41 10 55l9 25 28 15c15 8 41 15 56 16h29l29-29zm198 7c0-13-4-31-8-41l-7-19-13 16c-7 9-20 16-28 16h-15l4-75 3-75h-107l12 15 12 15-4 75-3 75 31 6c18 3 41 3 51 0l18-6 15 10c8 5 21 10 28 10h12l-1-22zm205 2 8-8 35 14 35 15 24-16 24-15 4-23c3-12 7-50 9-84l3-63h-91l3 80 4 80h-44l4-80 3-80h-90l3 80 4 80h-42v-121l10-20 11-19h-111v9c0 6 5 13 10 16l10 6v115l-12 12-12 12 7 6c3 4 34 8 68 10 33 1 64 5 67 8 6 7 43-2 56-14zm314 4 22-15v-128l11-7 11-6-9-8c-4-4-22-11-40-15l-31-6-6 10-7 10-24-11-24-11-24 7-25 6-6 16c-4 9-4 25-1 36l6 18 29 15c16 8 38 15 50 15h20v14c0 17-27 46-41 46-6 0-19-5-30-10l-19-11v10c0 16 52 40 85 41h31l22-16zm142-73v-80l10-6c6-3 10-10 10-16v-9h-111l11 19 10 20v106l-10 15-9 15 22 7c12 3 32 6 45 7l22 1v-79zm-1220-203-1-23-10 18-10 17h-59v-82l25 4 25 5v-24l-25 5-25 4v-82h66l12 12 12 12v-34h-135v190h125v-22zm114 11-7-11 18-59 18-58 10 6 9 6-7-24c-8-26-22-45-28-38-2 2-20 46-39 97l-36 92h69l-7-11zm95-6c-7-10-14-19-15-21-1-1-4 6-7 18l-5 20h40l-13-17zm181-5-1-23-10 18-10 17h-59v-82l25 4 25 5v-24l-25 5-25 4v-82h66l12 12 12 12v-34h-135v190h125v-22zm137-44 48-66 3 23c2 12 2 42 0 65l-3 44h27l-6-16c-3-9-6-49-6-90v-74h-9c-6 0-31 28-57 63-26 34-51 67-56 72l-10 10 4-78 3-77h-20v190h33l49-66zm263 49v-17l-12 12c-7 7-21 12-31 12h-19l4-90 3-90h-56l11 19 10 20v132l-15 5-15 6-15-12-15-12v32h150v-17zm128 11 22-6v-31l-18 16c-22 20-46 22-60 4l-11-13 7-10c4-6 26-23 50-38l42-26v-50l-25-16-25-16-35 6-35 7v28l28-16 29-16 16 6 17 6v40l-45 27-45 26v59l23 9c27 11 36 11 65 4zm-739-83c-6-18-13-30-15-28s1 18 7 36 13 30 15 28-1-18-7-36zm-219 689v-50h30l15 24 16 23-10 27-11 26h-40v-50zm0-125v-55h11c6 0 19 5 30 10l19 11v65l-12 12c-7 7-20 12-30 12h-18v-55zm-1063 35-5-20h-45l17-19c10-10 16-25 14-33-3-15 6-20 27-12l15 6 15-12 15-12v45l17 19 16 18h-42l-11 20c-6 11-15 20-19 20-5 0-11-9-14-20zm1659 64c-14-38-5-52 23-35l13 9-7 21c-8 25-20 27-29 5zm783-340-14-17 1-44 1-44 11-11 11-11 16 7 16 6-3 62-3 61-11 4c-6 2-17-4-25-13zm-1058-6-9-23 20-3c25-5 28-1 21 26-7 28-21 28-32 0zm719-83-13-16 11-11 10-10 11 6c13 8 15 46 2 46-5 0-14-7-21-15z"/></g><g fill="#4d3d95" transform="matrix(.1 0 0 -.1 0 300)"><path d="M0 1500V0h3000v3000H0V1500zm362 409 52-34 35 1h36l55 35 55 34h100l55-35 54-35h72l52 34 52 33 32 2 33 1 3-66 3-66-36-6-37-6-49-32-50-32-37-1-38-1-50 32c-27 17-61 35-76 38l-28 7-25-6-25-6-15-31-16-30 3-42 3-42 28-3 28-3-4-12-4-12-39-5-39-5-23-48-23-48-8 5c-5 3-23 31-42 61l-34 56-21 5c-11 3-38 4-60 2l-39-3-3-22-3-22 47-23 47-23 28-69c16-38 27-71 25-74-3-2-34 12-70 32-69 39-76 41-76 26 0-5 29-25 63-45l64-35h62l76 40c42 22 82 40 90 40 7 0 47-18 89-40l75-40h61l79 41 79 42 11-7 11-7v-127l-33-6-33-6-50-32-49-32h-90l-55 34-55 35h-82l-54-35-54-34h-90l-49 32c-28 18-54 32-58 32-21 0-3-20 45-50l52-33 42-5 42-4 66 37 67 37h70l51-32 52-33 42-5 42-4 64 36 65 36h52v-129l-37-10c-21-6-56-23-78-38l-40-28H785l-53 34-52 33h-72l-51-33-52-33-55-1h-55l-53 34-52 33h-67l-31-16c-17-9-34-16-37-16s-4 177-3 393l3 392 35 18 35 18 42-4 42-4 53-34zm1144 19 17-16v-56l-21-16-20-17 19-12c11-6 25-23 31-36l11-24-16-25-17-25-37-10-38-11h-147l8 18 9 17v200l-9 18-9 19 101-4 101-3 17-17zm134-90c0-62 3-123 6-135l6-23h-97l2 127 2 128 23 7c13 3 31 6 41 7l17 1v-112zm120-39v-80l18 3 17 3v144l29 5c16 3 35 6 42 6h14v-156l11-11 10-10-41-11-41-10-6 14-5 14-30-16-30-16-24 6-23 6-10 18c-5 9-10 49-13 89l-4 72 21 4c11 2 30 5 43 6l22 1v-81zm305 56 25-24v-41h-110v-13c0-7 6-21 13-31l14-19 36 5c20 2 37 1 37-2 0-13-36-39-63-45l-27-7-31 12-30 13-14 28c-19 36-19 63 0 99 19 37 41 49 88 50h38l24-25zM735 1753l60-38h45l45 1 60 37 60 37h45v-137l-33-6-34-5-50-31c-28-17-63-33-79-37l-29-5-48 24-47 24-5-7-5-8 37-24 38-23h90l52 33 51 33 29 2 28 2 3-67 3-68h-20c-10 0-53-18-95-40-41-22-85-40-96-40s-55 18-96 40l-76 40h-46l-66-35c-37-19-73-35-80-35h-14l-34 82-34 82-42 14c-23 7-42 18-42 23v10l43-3 42-3 48-72c26-40 51-73 55-73s19 27 34 60l26 60h70l12 15 12 14-4 18-3 18-28 3-27 3v30c0 52 27 89 65 89h20l60-37zm1910-158v-30h-58l-10 17-11 16 14 17 13 16 26-3 26-3v-30zm237-82c2-65 7-125 11-134l8-16-38-6-37-6-7 10-6 11-21-11c-11-6-32-11-46-11h-25l-20 26-21 27v33c0 18 4 44 10 58l9 25 30 16c17 8 42 15 57 15h27l-6 34-6 35 17 4c9 3 27 5 39 6l22 1 3-117zm-1464 26 37-81 40 81 39 81h88l-8-17c-5-10-10-62-12-117l-3-99 10-10c6-6 11-15 11-19v-8h-120v9c0 6 5 13 10 16l10 6-1 77v77l-42-82-41-83h-22l-42 83-42 82 3-75c2-41 7-83 11-92l8-18h-64l8 18 9 17v200l-9 18-8 17h93l37-81zm373-18c16-16 29-37 29-45v-16h-119l10-30 11-29 20-6c10-4 30-4 43-1l24 6-5-14c-7-18-49-36-85-36h-31l-29 29-29 29v31c0 16 4 41 10 55l9 25 28 15c15 8 41 15 56 16h29l29-29zm198 7c0-13-4-31-8-41l-7-19-13 16c-7 9-20 16-28 16h-15l4-75 3-75h-107l12 15 12 15-4 75-3 75 31 6c18 3 41 3 51 0l18-6 15 10c8 5 21 10 28 10h12l-1-22zm205 2 8-8 35 14 35 15 24-16 24-15 4-23c3-12 7-50 9-84l3-63h-91l3 80 4 80h-44l4-80 3-80h-90l3 80 4 80h-42v-121l10-20 11-19h-111v9c0 6 5 13 10 16l10 6v115l-12 12-12 12 7 6c3 4 34 8 68 10 33 1 64 5 67 8 6 7 43-2 56-14zm314 4 22-15v-128l11-7 11-6-9-8c-4-4-22-11-40-15l-31-6-6 10-7 10-24-11-24-11-24 7-25 6-6 16c-4 9-4 25-1 36l6 18 29 15c16 8 38 15 50 15h20v14c0 17-27 46-41 46-6 0-19-5-30-10l-19-11v10c0 16 52 40 85 41h31l22-16zm142-73v-80l10-6c6-3 10-10 10-16v-9h-111l11 19 10 20v106l-10 15-9 15 22 7c12 3 32 6 45 7l22 1v-79zm-1210-208v-26l-18 16-19 17h-53v-62l30 6 30 6v-54l-12 12c-7 7-20 12-30 12h-18v-70h63l19 17 18 16v-53h-161l11 19 10 20v112l-10 20-11 19h151v-27zm111 14-11-14 16-46c9-26 18-47 20-47 8 0 36 76 36 98l1 22h50l-15-17c-8-10-28-53-43-96l-28-78-15 3-15 3-29 80c-16 44-34 85-40 92l-10 13h94l-11-13zm279-12v-25h-9c-5 0-11 7-15 15l-5 15h-61v-62l30 6 30 6v-50h-10c-5 0-10 5-10 10v10h-40v-70h63l20 17 19 18-3-25-4-25-75-3-75-3v191h145v-25zm131-37 44-63 3 48 3 49-12 14-11 14h47l-5-92-5-91-11-4-11-4-54 71-54 72-3-57-3-57 12-14 11-14h-47v190h52l44-62zm269 42v-20h-9c-6 0-13 5-16 10-3 6-13 10-22 10h-15l3-85 4-85h-60l4 85 3 85h-13c-7 0-21-7-31-17l-18-16v53h170v-20zm134 14 16-6v-51l-23 21-23 22h-44v-29l31-16c39-21 69-51 69-70 0-8-9-24-20-35l-20-20h-34c-19 0-41 3-50 6l-16 6v51l23-21 23-22h22c11 0 24 5 28 12l7 11-24 18c-13 10-36 28-51 39l-28 22v15c0 9 7 25 17 35l16 18h33c18 0 39-3 48-6zM336 1792l-7-22h-43l12-12c7-7 12-23 12-36v-24l15 12 16 13 11-11c7-7 16-12 21-12h9l-6 16-6 17 16 18 17 19h-44l-8 22-8 23-7-23zm1054 88v-50h30l15 24 16 23-10 27-11 26h-40v-50zm0-125v-55h11c6 0 19 5 30 10l19 11v65l-12 12c-7 7-20 12-30 12h-18v-55zm596 99c-14-38-5-52 23-35l13 9-7 21c-8 25-20 27-29 5zm783-340-14-17 1-44 1-44 11-11 11-11 16 7 16 6-3 62-3 61-11 4c-6 2-17-4-25-13zm-1058-6-9-23 20-3c25-5 28-1 21 26-7 28-21 28-32 0zm719-83-13-16 11-11 10-10 11 6c13 8 15 46 2 46-5 0-14-7-21-15z"/></g></g></svg>